<?xml version="1.0" encoding="iso-8859-1"?>
<!-- Generator: Adobe Illustrator 19.0.0, SVG Export Plug-In . SVG Version: 6.00 Build 0)  -->
<svg version="1.1" id="Layer_1" xmlns="http://www.w3.org/2000/svg" xmlns:xlink="http://www.w3.org/1999/xlink" x="0px" y="0px"
	 viewBox="0 0 512 512" style="enable-background:new 0 0 512 512;" xml:space="preserve">
<g>
	<g>
		<g>
			<path d="M426.667,68.267c4.719,0,8.533-3.823,8.533-8.533s-3.814-8.533-8.533-8.533c-164.659,0-308.565,105.412-358.101,262.298
				c-1.425,4.497,1.067,9.284,5.564,10.709c0.853,0.265,1.724,0.401,2.569,0.401c3.627,0,6.997-2.33,8.132-5.973
				C132.113,168.883,269.491,68.267,426.667,68.267z"/>
			<path d="M400.461,154.846c-89.301,8.508-168.764,60.535-212.548,139.179c-2.287,4.113-0.802,9.31,3.311,11.605
				c1.314,0.734,2.739,1.075,4.147,1.075c2.995,0,5.897-1.579,7.467-4.378c41.045-73.737,115.533-122.522,199.236-130.492
				c4.693-0.444,8.132-4.608,7.689-9.301C409.318,157.85,405.188,154.445,400.461,154.846z"/>
			<path d="M9.779,392.943c0.29,0.026,0.572,0.043,0.853,0.043c4.335,0,8.038-3.285,8.482-7.689
				c21.06-209.92,196.267-368.23,407.552-368.23c1.971,0,8.371,0,17.229,0.23c0.068,0.009,0.145,0.009,0.23,0.009
				c4.599,0,8.397-3.678,8.525-8.311c0.128-4.71-3.601-8.627-8.311-8.755C435.26,0,428.689,0,426.667,0
				C206.583,0,24.064,164.915,2.133,383.599C1.664,388.284,5.086,392.474,9.779,392.943z"/>
			<path d="M17.067,187.733c0,4.71,3.814,8.533,8.533,8.533s8.533-3.823,8.533-8.533c4.719,0,8.533-3.823,8.533-8.533
				s-3.814-8.533-8.533-8.533c0-4.71-3.814-8.533-8.533-8.533s-8.533,3.823-8.533,8.533c-4.719,0-8.533,3.823-8.533,8.533
				S12.348,187.733,17.067,187.733z"/>
			<path d="M453.282,61.414c0.828,4.045,4.386,6.844,8.363,6.844c0.555,0,1.126-0.06,1.698-0.171
				c4.625-0.939,7.603-5.444,6.673-10.061c-0.461-2.227-0.683-4.523-0.683-6.827c0-18.825,15.309-34.133,34.133-34.133
				c4.719,0,8.533-3.823,8.533-8.533S508.186,0,503.467,0c-28.237,0-51.2,22.963-51.2,51.2
				C452.267,54.639,452.608,58.078,453.282,61.414z"/>
			<path d="M59.733,34.133h8.533v8.533c0,4.71,3.814,8.533,8.533,8.533s8.533-3.823,8.533-8.533v-8.533h8.533
				c4.719,0,8.533-3.823,8.533-8.533c0-4.71-3.814-8.533-8.533-8.533h-8.533V8.533C85.333,3.823,81.519,0,76.8,0
				s-8.533,3.823-8.533,8.533v8.533h-8.533c-4.719,0-8.533,3.823-8.533,8.533C51.2,30.31,55.014,34.133,59.733,34.133z"/>
			<path d="M439.825,110.933c0-4.71-3.814-8.533-8.533-8.533c-133.052,0-255.582,81.024-304.896,201.626
				c-1.784,4.361,0.307,9.344,4.659,11.128c1.058,0.427,2.159,0.64,3.234,0.64c3.362,0,6.554-2.005,7.902-5.308
				c38.886-95.078,143.352-191.019,289.101-191.019C436.011,119.467,439.825,115.644,439.825,110.933z"/>
			<path d="M460.8,290.133c0-4.71-3.814-8.533-8.533-8.533c-4.719,0-8.533,3.823-8.533,8.533c-4.719,0-8.533,3.823-8.533,8.533
				s3.814,8.533,8.533,8.533c0,4.71,3.814,8.533,8.533,8.533c4.719,0,8.533-3.823,8.533-8.533c4.719,0,8.533-3.823,8.533-8.533
				S465.519,290.133,460.8,290.133z"/>
			<path d="M268.561,418.389c-8.192-6.084-21.931-12.143-40.636-6.468c-4.506,1.374-7.057,6.135-5.692,10.65
				c1.365,4.497,6.11,7.049,10.641,5.683c9.583-2.918,18.167-1.604,25.523,3.849c10.078,7.475,14.669,20.113,14.669,28.698
				c0,18.825-15.309,34.133-34.133,34.133h-179.2c-23.526,0-42.667-19.14-42.667-42.667c0-19.942,13.577-37.018,32.998-41.523
				c2.714-0.623,4.941-2.534,5.982-5.103c1.041-2.577,0.768-5.495-0.734-7.834C52.625,393.634,51.2,388.855,51.2,384
				c0-14.114,11.486-25.6,25.6-25.6c9.165,0,17.681,5.069,22.238,13.227c1.451,2.603,4.164,4.267,7.142,4.378
				c2.918,0.137,5.803-1.357,7.441-3.849c12.698-19.294,34.022-30.822,57.045-30.822c30.123,0,57.071,20.173,65.527,49.067
				c1.323,4.514,6.05,7.125,10.59,5.786c4.523-1.323,7.117-6.067,5.794-10.59c-10.581-36.105-44.262-61.329-81.911-61.329
				c-24.866,0-48.145,10.743-64.239,29.21c-7.851-7.672-18.441-12.143-29.628-12.143c-23.526,0-42.667,19.14-42.667,42.667
				c0,4.548,0.734,9.045,2.167,13.338C14.498,406.545,0,427.878,0,452.267C0,485.205,26.803,512,59.733,512h179.2
				c28.237,0,51.2-22.963,51.2-51.2C290.133,445.005,281.464,427.964,268.561,418.389z"/>
			<path d="M400.572,205.508c-73.438,5.99-137.651,48.691-171.776,114.244c-2.176,4.181-0.555,9.327,3.618,11.511
				c1.263,0.648,2.611,0.964,3.934,0.964c3.089,0,6.059-1.673,7.578-4.591c31.403-60.314,90.47-99.61,158.029-105.114
				c4.702-0.384,8.201-4.506,7.825-9.199C409.395,208.623,405.222,205.133,400.572,205.508z"/>
			<path d="M501.939,220.937c-6.34,1.152-15.215,0.93-15.539,0.93c-23.526,0-42.667-19.14-42.667-42.667
				c0-19.84,14.029-37.35,33.348-41.643c2.756-0.614,5.035-2.552,6.076-5.171c1.05-2.62,0.725-5.589-0.845-7.927
				c-3.081-4.565-4.446-8.73-4.446-13.525c0-11.759,7.953-21.965,19.336-24.832c4.574-1.143,7.347-5.777,6.195-10.351
				c-1.152-4.574-5.828-7.33-10.351-6.195c-18.987,4.762-32.247,21.786-32.247,41.378c0,4.599,0.759,8.994,2.313,13.261
				c-21.632,9.225-36.446,30.891-36.446,55.006c0,32.939,26.803,59.733,59.503,59.733c0.111,0,0.973,0.017,2.321,0.017
				c3.576,0,10.607-0.154,16.503-1.22c4.642-0.845,7.714-5.291,6.861-9.924C511.027,223.172,506.573,220.117,501.939,220.937z"/>
			<path d="M332.8,349.867c4.719,0,8.533-3.823,8.533-8.533c4.719,0,8.533-3.823,8.533-8.533c0-4.71-3.814-8.533-8.533-8.533
				c0-4.71-3.814-8.533-8.533-8.533c-4.719,0-8.533,3.823-8.533,8.533c-4.719,0-8.533,3.823-8.533,8.533
				c0,4.71,3.814,8.533,8.533,8.533C324.267,346.044,328.081,349.867,332.8,349.867z"/>
			<path d="M366.933,477.867H358.4v-8.533c0-4.71-3.814-8.533-8.533-8.533s-8.533,3.823-8.533,8.533v8.533H332.8
				c-4.719,0-8.533,3.823-8.533,8.533s3.814,8.533,8.533,8.533h8.533v8.533c0,4.71,3.814,8.533,8.533,8.533s8.533-3.823,8.533-8.533
				v-8.533h8.533c4.719,0,8.533-3.823,8.533-8.533S371.652,477.867,366.933,477.867z"/>
		</g>
	</g>
</g>
<g>
</g>
<g>
</g>
<g>
</g>
<g>
</g>
<g>
</g>
<g>
</g>
<g>
</g>
<g>
</g>
<g>
</g>
<g>
</g>
<g>
</g>
<g>
</g>
<g>
</g>
<g>
</g>
<g>
</g>
</svg>
